<svg width="520" height="385" viewBox="0 0 520 385" fill="none" xmlns="http://www.w3.org/2000/svg">
<g filter="url(#filter0_d)">
<rect x="25" y="15" width="204" height="240" rx="4" fill="white"/>
</g>
<path d="M65.1055 176C61.816 168.061 60 159.352 60 150.218C60 113.094 89.9969 83 127 83C164.003 83 194 113.094 194 150.218C194 159.352 192.184 168.061 188.894 176" stroke="#E4FEF9" stroke-width="15" stroke-linecap="round"/>
<path d="M65.1055 176C61.816 168.061 60 159.352 60 150.218C60 132.561 66.7856 116.495 77.8834 104.5" stroke="#1BA0AB" stroke-width="15" stroke-linecap="round"/>
<path d="M114.02 213.004C114.02 213.909 113.756 214.664 113.229 215.27C112.701 215.868 111.959 216.272 111.002 216.48V216.559C112.148 216.702 113.007 217.06 113.58 217.633C114.153 218.199 114.439 218.954 114.439 219.898C114.439 221.272 113.954 222.333 112.984 223.082C112.014 223.824 110.634 224.195 108.844 224.195C107.262 224.195 105.927 223.938 104.84 223.424V221.383C105.445 221.682 106.087 221.913 106.764 222.076C107.441 222.239 108.092 222.32 108.717 222.32C109.824 222.32 110.65 222.115 111.197 221.705C111.744 221.295 112.018 220.66 112.018 219.801C112.018 219.039 111.715 218.479 111.109 218.121C110.504 217.763 109.553 217.584 108.258 217.584H107.018V215.719H108.277C110.556 215.719 111.695 214.931 111.695 213.355C111.695 212.743 111.497 212.271 111.1 211.939C110.702 211.607 110.117 211.441 109.342 211.441C108.801 211.441 108.281 211.52 107.779 211.676C107.278 211.826 106.686 212.122 106.002 212.564L104.879 210.963C106.188 209.999 107.708 209.518 109.439 209.518C110.878 209.518 112.001 209.827 112.809 210.445C113.616 211.064 114.02 211.917 114.02 213.004ZM125.445 213.004C125.445 213.909 125.182 214.664 124.654 215.27C124.127 215.868 123.385 216.272 122.428 216.48V216.559C123.574 216.702 124.433 217.06 125.006 217.633C125.579 218.199 125.865 218.954 125.865 219.898C125.865 221.272 125.38 222.333 124.41 223.082C123.44 223.824 122.06 224.195 120.27 224.195C118.688 224.195 117.353 223.938 116.266 223.424V221.383C116.871 221.682 117.512 221.913 118.189 222.076C118.867 222.239 119.518 222.32 120.143 222.32C121.249 222.32 122.076 222.115 122.623 221.705C123.17 221.295 123.443 220.66 123.443 219.801C123.443 219.039 123.141 218.479 122.535 218.121C121.93 217.763 120.979 217.584 119.684 217.584H118.443V215.719H119.703C121.982 215.719 123.121 214.931 123.121 213.355C123.121 212.743 122.923 212.271 122.525 211.939C122.128 211.607 121.542 211.441 120.768 211.441C120.227 211.441 119.706 211.52 119.205 211.676C118.704 211.826 118.111 212.122 117.428 212.564L116.305 210.963C117.613 209.999 119.133 209.518 120.865 209.518C122.304 209.518 123.427 209.827 124.234 210.445C125.042 211.064 125.445 211.917 125.445 213.004ZM132.574 215.084C134.013 215.084 135.152 215.465 135.992 216.227C136.832 216.988 137.252 218.027 137.252 219.342C137.252 220.865 136.773 222.057 135.816 222.916C134.866 223.769 133.512 224.195 131.754 224.195C130.159 224.195 128.906 223.938 127.994 223.424V221.344C128.521 221.643 129.127 221.874 129.811 222.037C130.494 222.2 131.129 222.281 131.715 222.281C132.75 222.281 133.538 222.05 134.078 221.588C134.618 221.126 134.889 220.449 134.889 219.557C134.889 217.851 133.801 216.998 131.627 216.998C131.321 216.998 130.943 217.031 130.494 217.096C130.045 217.154 129.651 217.223 129.312 217.301L128.287 216.695L128.834 209.723H136.256V211.764H130.855L130.533 215.299C130.761 215.26 131.038 215.214 131.363 215.162C131.695 215.11 132.099 215.084 132.574 215.084ZM148.834 216.861C148.834 219.342 148.434 221.184 147.633 222.389C146.839 223.593 145.621 224.195 143.98 224.195C142.392 224.195 141.188 223.574 140.367 222.33C139.547 221.087 139.137 219.264 139.137 216.861C139.137 214.342 139.534 212.486 140.328 211.295C141.129 210.097 142.346 209.498 143.98 209.498C145.576 209.498 146.783 210.123 147.604 211.373C148.424 212.623 148.834 214.452 148.834 216.861ZM141.461 216.861C141.461 218.808 141.66 220.198 142.057 221.031C142.46 221.865 143.102 222.281 143.98 222.281C144.859 222.281 145.501 221.858 145.904 221.012C146.314 220.165 146.52 218.782 146.52 216.861C146.52 214.947 146.314 213.564 145.904 212.711C145.501 211.852 144.859 211.422 143.98 211.422C143.102 211.422 142.46 211.842 142.057 212.682C141.66 213.521 141.461 214.915 141.461 216.861Z" fill="#2F2E3E"/>
<path d="M73.384 46.88V48.368H70.424V58H68.6V48.368H65.624V46.88H73.384ZM74.6233 53.552C74.6233 52.6667 74.8046 51.8827 75.1673 51.2C75.5406 50.5173 76.0419 49.9893 76.6713 49.616C77.3113 49.232 78.0153 49.04 78.7833 49.04C79.4766 49.04 80.0793 49.1787 80.5913 49.456C81.1139 49.7227 81.5299 50.0587 81.8393 50.464V49.184H83.6793V58H81.8393V56.688C81.5299 57.104 81.1086 57.4507 80.5753 57.728C80.0419 58.0053 79.4339 58.144 78.7513 58.144C77.9939 58.144 77.3006 57.952 76.6713 57.568C76.0419 57.1733 75.5406 56.6293 75.1673 55.936C74.8046 55.232 74.6233 54.4373 74.6233 53.552ZM81.8393 53.584C81.8393 52.976 81.7113 52.448 81.4553 52C81.2099 51.552 80.8846 51.2107 80.4793 50.976C80.0739 50.7413 79.6366 50.624 79.1673 50.624C78.6979 50.624 78.2606 50.7413 77.8553 50.976C77.4499 51.2 77.1193 51.536 76.8633 51.984C76.6179 52.4213 76.4953 52.944 76.4953 53.552C76.4953 54.16 76.6179 54.6933 76.8633 55.152C77.1193 55.6107 77.4499 55.9627 77.8553 56.208C78.2713 56.4427 78.7086 56.56 79.1673 56.56C79.6366 56.56 80.0739 56.4427 80.4793 56.208C80.8846 55.9733 81.2099 55.632 81.4553 55.184C81.7113 54.7253 81.8393 54.192 81.8393 53.584ZM87.899 50.464C88.1657 50.016 88.5177 49.6693 88.955 49.424C89.403 49.168 89.931 49.04 90.539 49.04V50.928H90.075C89.3603 50.928 88.8163 51.1093 88.443 51.472C88.0803 51.8347 87.899 52.464 87.899 53.36V58H86.075V49.184H87.899V50.464ZM95.7676 49.04C96.4503 49.04 97.053 49.1787 97.5756 49.456C98.109 49.7227 98.525 50.0587 98.8236 50.464V49.184H100.664V58.144C100.664 58.9547 100.493 59.6747 100.152 60.304C99.8103 60.944 99.3143 61.4453 98.6636 61.808C98.0236 62.1707 97.2556 62.352 96.3596 62.352C95.165 62.352 94.173 62.0693 93.3836 61.504C92.5943 60.9493 92.1463 60.192 92.0396 59.232H93.8476C93.9863 59.6907 94.2796 60.0587 94.7276 60.336C95.1863 60.624 95.7303 60.768 96.3596 60.768C97.0956 60.768 97.6876 60.544 98.1356 60.096C98.5943 59.648 98.8236 58.9973 98.8236 58.144V56.672C98.5143 57.088 98.093 57.44 97.5596 57.728C97.037 58.0053 96.4396 58.144 95.7676 58.144C94.9996 58.144 94.2956 57.952 93.6556 57.568C93.0263 57.1733 92.525 56.6293 92.1516 55.936C91.789 55.232 91.6076 54.4373 91.6076 53.552C91.6076 52.6667 91.789 51.8827 92.1516 51.2C92.525 50.5173 93.0263 49.9893 93.6556 49.616C94.2956 49.232 94.9996 49.04 95.7676 49.04ZM98.8236 53.584C98.8236 52.976 98.6956 52.448 98.4396 52C98.1943 51.552 97.869 51.2107 97.4636 50.976C97.0583 50.7413 96.621 50.624 96.1516 50.624C95.6823 50.624 95.245 50.7413 94.8396 50.976C94.4343 51.2 94.1036 51.536 93.8476 51.984C93.6023 52.4213 93.4796 52.944 93.4796 53.552C93.4796 54.16 93.6023 54.6933 93.8476 55.152C94.1036 55.6107 94.4343 55.9627 94.8396 56.208C95.2556 56.4427 95.693 56.56 96.1516 56.56C96.621 56.56 97.0583 56.4427 97.4636 56.208C97.869 55.9733 98.1943 55.632 98.4396 55.184C98.6956 54.7253 98.8236 54.192 98.8236 53.584ZM111.139 53.376C111.139 53.7067 111.118 54.0053 111.075 54.272H104.339C104.393 54.976 104.654 55.5413 105.123 55.968C105.593 56.3947 106.169 56.608 106.851 56.608C107.833 56.608 108.526 56.1973 108.931 55.376H110.899C110.633 56.1867 110.147 56.8533 109.443 57.376C108.75 57.888 107.886 58.144 106.851 58.144C106.009 58.144 105.251 57.9573 104.579 57.584C103.918 57.2 103.395 56.6667 103.011 55.984C102.638 55.2907 102.451 54.4907 102.451 53.584C102.451 52.6773 102.633 51.8827 102.995 51.2C103.369 50.5067 103.886 49.9733 104.547 49.6C105.219 49.2267 105.987 49.04 106.851 49.04C107.683 49.04 108.425 49.2213 109.075 49.584C109.726 49.9467 110.233 50.4587 110.595 51.12C110.958 51.7707 111.139 52.5227 111.139 53.376ZM109.235 52.8C109.225 52.128 108.985 51.5893 108.515 51.184C108.046 50.7787 107.465 50.576 106.771 50.576C106.142 50.576 105.603 50.7787 105.155 51.184C104.707 51.5787 104.441 52.1173 104.355 52.8H109.235ZM115.062 50.672V55.552C115.062 55.8827 115.137 56.1227 115.286 56.272C115.446 56.4107 115.713 56.48 116.086 56.48H117.206V58H115.766C114.945 58 114.316 57.808 113.878 57.424C113.441 57.04 113.222 56.416 113.222 55.552V50.672H112.182V49.184H113.222V46.992H115.062V49.184H117.206V50.672H115.062ZM126.968 53.376C126.968 53.7067 126.946 54.0053 126.904 54.272H120.168C120.221 54.976 120.482 55.5413 120.952 55.968C121.421 56.3947 121.997 56.608 122.68 56.608C123.661 56.608 124.354 56.1973 124.76 55.376H126.727C126.461 56.1867 125.976 56.8533 125.272 57.376C124.578 57.888 123.714 58.144 122.68 58.144C121.837 58.144 121.08 57.9573 120.408 57.584C119.746 57.2 119.224 56.6667 118.84 55.984C118.466 55.2907 118.28 54.4907 118.28 53.584C118.28 52.6773 118.461 51.8827 118.824 51.2C119.197 50.5067 119.714 49.9733 120.376 49.6C121.048 49.2267 121.816 49.04 122.68 49.04C123.512 49.04 124.253 49.2213 124.904 49.584C125.554 49.9467 126.061 50.4587 126.424 51.12C126.786 51.7707 126.968 52.5227 126.968 53.376ZM125.064 52.8C125.053 52.128 124.813 51.5893 124.344 51.184C123.874 50.7787 123.293 50.576 122.6 50.576C121.97 50.576 121.432 50.7787 120.984 51.184C120.536 51.5787 120.269 52.1173 120.184 52.8H125.064ZM128.155 53.552C128.155 52.6667 128.336 51.8827 128.699 51.2C129.072 50.5173 129.573 49.9893 130.203 49.616C130.843 49.232 131.552 49.04 132.331 49.04C132.907 49.04 133.472 49.168 134.027 49.424C134.592 49.6693 135.04 50 135.371 50.416V46.16H137.211V58H135.371V56.672C135.072 57.0987 134.656 57.4507 134.123 57.728C133.6 58.0053 132.997 58.144 132.315 58.144C131.547 58.144 130.843 57.952 130.203 57.568C129.573 57.1733 129.072 56.6293 128.699 55.936C128.336 55.232 128.155 54.4373 128.155 53.552ZM135.371 53.584C135.371 52.976 135.243 52.448 134.987 52C134.741 51.552 134.416 51.2107 134.011 50.976C133.605 50.7413 133.168 50.624 132.699 50.624C132.229 50.624 131.792 50.7413 131.387 50.976C130.981 51.2 130.651 51.536 130.395 51.984C130.149 52.4213 130.027 52.944 130.027 53.552C130.027 54.16 130.149 54.6933 130.395 55.152C130.651 55.6107 130.981 55.9627 131.387 56.208C131.803 56.4427 132.24 56.56 132.699 56.56C133.168 56.56 133.605 56.4427 134.011 56.208C134.416 55.9733 134.741 55.632 134.987 55.184C135.243 54.7253 135.371 54.192 135.371 53.584ZM145.891 50.672V55.552C145.891 55.8827 145.965 56.1227 146.115 56.272C146.275 56.4107 146.541 56.48 146.915 56.48H148.035V58H146.595C145.773 58 145.144 57.808 144.707 57.424C144.269 57.04 144.051 56.416 144.051 55.552V50.672H143.011V49.184H144.051V46.992H145.891V49.184H148.035V50.672H145.891ZM151.54 50.464C151.806 50.016 152.158 49.6693 152.596 49.424C153.044 49.168 153.572 49.04 154.18 49.04V50.928H153.716C153.001 50.928 152.457 51.1093 152.084 51.472C151.721 51.8347 151.54 52.464 151.54 53.36V58H149.716V49.184H151.54V50.464ZM155.248 53.552C155.248 52.6667 155.43 51.8827 155.792 51.2C156.166 50.5173 156.667 49.9893 157.296 49.616C157.936 49.232 158.64 49.04 159.408 49.04C160.102 49.04 160.704 49.1787 161.216 49.456C161.739 49.7227 162.155 50.0587 162.464 50.464V49.184H164.304V58H162.464V56.688C162.155 57.104 161.734 57.4507 161.2 57.728C160.667 58.0053 160.059 58.144 159.376 58.144C158.619 58.144 157.926 57.952 157.296 57.568C156.667 57.1733 156.166 56.6293 155.792 55.936C155.43 55.232 155.248 54.4373 155.248 53.552ZM162.464 53.584C162.464 52.976 162.336 52.448 162.08 52C161.835 51.552 161.51 51.2107 161.104 50.976C160.699 50.7413 160.262 50.624 159.792 50.624C159.323 50.624 158.886 50.7413 158.48 50.976C158.075 51.2 157.744 51.536 157.488 51.984C157.243 52.4213 157.12 52.944 157.12 53.552C157.12 54.16 157.243 54.6933 157.488 55.152C157.744 55.6107 158.075 55.9627 158.48 56.208C158.896 56.4427 159.334 56.56 159.792 56.56C160.262 56.56 160.699 56.4427 161.104 56.208C161.51 55.9733 161.835 55.632 162.08 55.184C162.336 54.7253 162.464 54.192 162.464 53.584ZM170.396 50.672H168.764V58H166.924V50.672H165.884V49.184H166.924V48.56C166.924 47.5467 167.191 46.8107 167.724 46.352C168.268 45.8827 169.116 45.648 170.268 45.648V47.168C169.713 47.168 169.324 47.2747 169.1 47.488C168.876 47.6907 168.764 48.048 168.764 48.56V49.184H170.396V50.672ZM175.709 50.672H174.077V58H172.237V50.672H171.197V49.184H172.237V48.56C172.237 47.5467 172.503 46.8107 173.037 46.352C173.581 45.8827 174.429 45.648 175.581 45.648V47.168C175.026 47.168 174.637 47.2747 174.413 47.488C174.189 47.6907 174.077 48.048 174.077 48.56V49.184H175.709V50.672ZM178.253 48.016C177.922 48.016 177.645 47.904 177.421 47.68C177.197 47.456 177.085 47.1787 177.085 46.848C177.085 46.5173 177.197 46.24 177.421 46.016C177.645 45.792 177.922 45.68 178.253 45.68C178.573 45.68 178.845 45.792 179.069 46.016C179.293 46.24 179.405 46.5173 179.405 46.848C179.405 47.1787 179.293 47.456 179.069 47.68C178.845 47.904 178.573 48.016 178.253 48.016ZM179.149 49.184V58H177.325V49.184H179.149ZM180.936 53.584C180.936 52.6773 181.117 51.8827 181.48 51.2C181.853 50.5067 182.365 49.9733 183.016 49.6C183.666 49.2267 184.413 49.04 185.256 49.04C186.322 49.04 187.202 49.296 187.896 49.808C188.6 50.3093 189.074 51.0293 189.32 51.968H187.352C187.192 51.5307 186.936 51.1893 186.584 50.944C186.232 50.6987 185.789 50.576 185.256 50.576C184.509 50.576 183.912 50.8427 183.464 51.376C183.026 51.8987 182.808 52.6347 182.808 53.584C182.808 54.5333 183.026 55.2747 183.464 55.808C183.912 56.3413 184.509 56.608 185.256 56.608C186.312 56.608 187.01 56.144 187.352 55.216H189.32C189.064 56.112 188.584 56.8267 187.88 57.36C187.176 57.8827 186.301 58.144 185.256 58.144C184.413 58.144 183.666 57.9573 183.016 57.584C182.365 57.2 181.853 56.6667 181.48 55.984C181.117 55.2907 180.936 54.4907 180.936 53.584Z" fill="#2F2E3E"/>
<g filter="url(#filter1_d)">
<circle cx="128" cy="151" r="10" fill="white"/>
</g>
<circle cx="128" cy="151" r="5" fill="#E4FEF9"/>
<path d="M107.987 133.91C107.292 133.025 107.402 131.752 108.239 131C109.076 130.247 110.353 130.272 111.159 131.057L119.394 139.073C119.992 139.655 119.973 140.621 119.353 141.178L117.183 143.129C116.563 143.687 115.6 143.603 115.085 142.947L107.987 133.91Z" fill="#1BA0AB"/>
<g filter="url(#filter2_d)">
<rect x="159" y="20" width="326" height="310" rx="14" fill="white"/>
</g>
<path d="M159 34C159 26.268 165.268 20 173 20H471C478.732 20 485 26.268 485 34V48H159V34Z" fill="#1BA0AB"/>
<rect x="380" y="263" width="84" height="41" rx="6" fill="#E9FAFC"/>
<path d="M401.409 289.104C400.69 289.104 400.031 289.009 399.433 288.818C398.844 288.627 398.333 288.341 397.899 287.96L398.38 286.972C398.831 287.336 399.299 287.6 399.784 287.765C400.27 287.93 400.816 288.012 401.422 288.012C402.116 288.012 402.653 287.882 403.034 287.622C403.416 287.362 403.606 286.994 403.606 286.517C403.606 286.118 403.429 285.819 403.073 285.62C402.718 285.412 402.155 285.221 401.383 285.048C400.647 284.892 400.044 284.714 399.576 284.515C399.108 284.307 398.74 284.034 398.471 283.696C398.203 283.349 398.068 282.907 398.068 282.37C398.068 281.833 398.211 281.36 398.497 280.953C398.783 280.537 399.186 280.216 399.706 279.991C400.235 279.757 400.842 279.64 401.526 279.64C402.176 279.64 402.783 279.74 403.346 279.939C403.918 280.138 404.395 280.42 404.776 280.784L404.295 281.772C403.871 281.417 403.433 281.157 402.982 280.992C402.532 280.819 402.051 280.732 401.539 280.732C400.872 280.732 400.348 280.875 399.966 281.161C399.585 281.438 399.394 281.82 399.394 282.305C399.394 282.721 399.559 283.037 399.888 283.254C400.226 283.471 400.764 283.666 401.5 283.839C402.272 284.012 402.896 284.194 403.372 284.385C403.849 284.576 404.23 284.836 404.516 285.165C404.802 285.494 404.945 285.919 404.945 286.439C404.945 286.976 404.802 287.444 404.516 287.843C404.23 288.242 403.819 288.554 403.281 288.779C402.753 288.996 402.129 289.104 401.409 289.104ZM412.184 282.448V289H410.91V287.908C410.702 288.289 410.416 288.584 410.052 288.792C409.688 288.991 409.276 289.091 408.817 289.091C407.239 289.091 406.451 288.216 406.451 286.465V282.448H407.751V286.452C407.751 286.989 407.859 287.388 408.076 287.648C408.301 287.899 408.639 288.025 409.09 288.025C409.627 288.025 410.056 287.852 410.377 287.505C410.706 287.158 410.871 286.699 410.871 286.127V282.448H412.184ZM417.578 282.292C418.141 282.292 418.644 282.435 419.086 282.721C419.528 283.007 419.87 283.41 420.113 283.93C420.364 284.45 420.49 285.048 420.49 285.724C420.49 286.4 420.369 286.994 420.126 287.505C419.883 288.008 419.541 288.398 419.099 288.675C418.657 288.952 418.15 289.091 417.578 289.091C417.075 289.091 416.633 288.987 416.252 288.779C415.879 288.562 415.598 288.255 415.407 287.856V291.808H414.107V284.294C414.107 283.609 414.072 282.994 414.003 282.448H415.225L415.355 283.657C415.528 283.224 415.81 282.89 416.2 282.656C416.59 282.413 417.049 282.292 417.578 282.292ZM417.279 288.051C417.868 288.051 418.328 287.847 418.657 287.44C418.986 287.033 419.151 286.461 419.151 285.724C419.151 284.979 418.986 284.398 418.657 283.982C418.328 283.557 417.868 283.345 417.279 283.345C416.672 283.345 416.209 283.549 415.888 283.956C415.567 284.363 415.407 284.944 415.407 285.698C415.407 286.452 415.567 287.033 415.888 287.44C416.217 287.847 416.681 288.051 417.279 288.051ZM425.5 282.292C426.063 282.292 426.566 282.435 427.008 282.721C427.45 283.007 427.792 283.41 428.035 283.93C428.286 284.45 428.412 285.048 428.412 285.724C428.412 286.4 428.291 286.994 428.048 287.505C427.805 288.008 427.463 288.398 427.021 288.675C426.579 288.952 426.072 289.091 425.5 289.091C424.997 289.091 424.555 288.987 424.174 288.779C423.801 288.562 423.52 288.255 423.329 287.856V291.808H422.029V284.294C422.029 283.609 421.994 282.994 421.925 282.448H423.147L423.277 283.657C423.45 283.224 423.732 282.89 424.122 282.656C424.512 282.413 424.971 282.292 425.5 282.292ZM425.201 288.051C425.79 288.051 426.25 287.847 426.579 287.44C426.908 287.033 427.073 286.461 427.073 285.724C427.073 284.979 426.908 284.398 426.579 283.982C426.25 283.557 425.79 283.345 425.201 283.345C424.594 283.345 424.131 283.549 423.81 283.956C423.489 284.363 423.329 284.944 423.329 285.698C423.329 286.452 423.489 287.033 423.81 287.44C424.139 287.847 424.603 288.051 425.201 288.051ZM432.772 289.091C432.13 289.091 431.567 288.952 431.082 288.675C430.596 288.398 430.219 288.003 429.951 287.492C429.691 286.981 429.561 286.383 429.561 285.698C429.561 285.013 429.691 284.415 429.951 283.904C430.219 283.384 430.596 282.985 431.082 282.708C431.567 282.431 432.13 282.292 432.772 282.292C433.404 282.292 433.963 282.431 434.449 282.708C434.934 282.985 435.307 283.384 435.567 283.904C435.835 284.415 435.97 285.013 435.97 285.698C435.97 286.383 435.835 286.981 435.567 287.492C435.307 288.003 434.934 288.398 434.449 288.675C433.963 288.952 433.404 289.091 432.772 289.091ZM432.759 288.051C433.365 288.051 433.829 287.852 434.15 287.453C434.47 287.054 434.631 286.469 434.631 285.698C434.631 284.944 434.466 284.363 434.137 283.956C433.816 283.549 433.361 283.345 432.772 283.345C432.174 283.345 431.71 283.549 431.381 283.956C431.051 284.363 430.887 284.944 430.887 285.698C430.887 286.469 431.047 287.054 431.368 287.453C431.697 287.852 432.161 288.051 432.759 288.051ZM440.767 282.292C440.967 282.292 441.175 282.322 441.391 282.383L441.365 283.579C441.131 283.492 440.876 283.449 440.598 283.449C440 283.449 439.55 283.631 439.246 283.995C438.952 284.35 438.804 284.801 438.804 285.347V289H437.504V284.294C437.504 283.609 437.47 282.994 437.4 282.448H438.622L438.739 283.631C438.913 283.198 439.181 282.868 439.545 282.643C439.909 282.409 440.317 282.292 440.767 282.292ZM444.641 283.462V286.751C444.641 287.202 444.736 287.522 444.927 287.713C445.126 287.895 445.399 287.986 445.746 287.986C445.971 287.986 446.201 287.951 446.435 287.882V288.948C446.149 289.043 445.824 289.091 445.46 289.091C444.784 289.091 444.26 288.9 443.887 288.519C443.514 288.138 443.328 287.583 443.328 286.855V283.462H442.054V282.448H443.328V280.81L444.641 280.355V282.448H446.448V283.462H444.641Z" fill="#8A8CA8"/>
<rect x="290" y="263" width="84" height="41" rx="6" fill="#E9FAFC"/>
<path d="M311.409 289.104C310.69 289.104 310.031 289.009 309.433 288.818C308.844 288.627 308.333 288.341 307.899 287.96L308.38 286.972C308.831 287.336 309.299 287.6 309.784 287.765C310.27 287.93 310.816 288.012 311.422 288.012C312.116 288.012 312.653 287.882 313.034 287.622C313.416 287.362 313.606 286.994 313.606 286.517C313.606 286.118 313.429 285.819 313.073 285.62C312.718 285.412 312.155 285.221 311.383 285.048C310.647 284.892 310.044 284.714 309.576 284.515C309.108 284.307 308.74 284.034 308.471 283.696C308.203 283.349 308.068 282.907 308.068 282.37C308.068 281.833 308.211 281.36 308.497 280.953C308.783 280.537 309.186 280.216 309.706 279.991C310.235 279.757 310.842 279.64 311.526 279.64C312.176 279.64 312.783 279.74 313.346 279.939C313.918 280.138 314.395 280.42 314.776 280.784L314.295 281.772C313.871 281.417 313.433 281.157 312.982 280.992C312.532 280.819 312.051 280.732 311.539 280.732C310.872 280.732 310.348 280.875 309.966 281.161C309.585 281.438 309.394 281.82 309.394 282.305C309.394 282.721 309.559 283.037 309.888 283.254C310.226 283.471 310.764 283.666 311.5 283.839C312.272 284.012 312.896 284.194 313.372 284.385C313.849 284.576 314.23 284.836 314.516 285.165C314.802 285.494 314.945 285.919 314.945 286.439C314.945 286.976 314.802 287.444 314.516 287.843C314.23 288.242 313.819 288.554 313.281 288.779C312.753 288.996 312.129 289.104 311.409 289.104ZM322.184 282.448V289H320.91V287.908C320.702 288.289 320.416 288.584 320.052 288.792C319.688 288.991 319.276 289.091 318.817 289.091C317.239 289.091 316.451 288.216 316.451 286.465V282.448H317.751V286.452C317.751 286.989 317.859 287.388 318.076 287.648C318.301 287.899 318.639 288.025 319.09 288.025C319.627 288.025 320.056 287.852 320.377 287.505C320.706 287.158 320.871 286.699 320.871 286.127V282.448H322.184ZM327.578 282.292C328.141 282.292 328.644 282.435 329.086 282.721C329.528 283.007 329.87 283.41 330.113 283.93C330.364 284.45 330.49 285.048 330.49 285.724C330.49 286.4 330.369 286.994 330.126 287.505C329.883 288.008 329.541 288.398 329.099 288.675C328.657 288.952 328.15 289.091 327.578 289.091C327.075 289.091 326.633 288.987 326.252 288.779C325.879 288.562 325.598 288.255 325.407 287.856V291.808H324.107V284.294C324.107 283.609 324.072 282.994 324.003 282.448H325.225L325.355 283.657C325.528 283.224 325.81 282.89 326.2 282.656C326.59 282.413 327.049 282.292 327.578 282.292ZM327.279 288.051C327.868 288.051 328.328 287.847 328.657 287.44C328.986 287.033 329.151 286.461 329.151 285.724C329.151 284.979 328.986 284.398 328.657 283.982C328.328 283.557 327.868 283.345 327.279 283.345C326.672 283.345 326.209 283.549 325.888 283.956C325.567 284.363 325.407 284.944 325.407 285.698C325.407 286.452 325.567 287.033 325.888 287.44C326.217 287.847 326.681 288.051 327.279 288.051ZM335.5 282.292C336.063 282.292 336.566 282.435 337.008 282.721C337.45 283.007 337.792 283.41 338.035 283.93C338.286 284.45 338.412 285.048 338.412 285.724C338.412 286.4 338.291 286.994 338.048 287.505C337.805 288.008 337.463 288.398 337.021 288.675C336.579 288.952 336.072 289.091 335.5 289.091C334.997 289.091 334.555 288.987 334.174 288.779C333.801 288.562 333.52 288.255 333.329 287.856V291.808H332.029V284.294C332.029 283.609 331.994 282.994 331.925 282.448H333.147L333.277 283.657C333.45 283.224 333.732 282.89 334.122 282.656C334.512 282.413 334.971 282.292 335.5 282.292ZM335.201 288.051C335.79 288.051 336.25 287.847 336.579 287.44C336.908 287.033 337.073 286.461 337.073 285.724C337.073 284.979 336.908 284.398 336.579 283.982C336.25 283.557 335.79 283.345 335.201 283.345C334.594 283.345 334.131 283.549 333.81 283.956C333.489 284.363 333.329 284.944 333.329 285.698C333.329 286.452 333.489 287.033 333.81 287.44C334.139 287.847 334.603 288.051 335.201 288.051ZM342.772 289.091C342.13 289.091 341.567 288.952 341.082 288.675C340.596 288.398 340.219 288.003 339.951 287.492C339.691 286.981 339.561 286.383 339.561 285.698C339.561 285.013 339.691 284.415 339.951 283.904C340.219 283.384 340.596 282.985 341.082 282.708C341.567 282.431 342.13 282.292 342.772 282.292C343.404 282.292 343.963 282.431 344.449 282.708C344.934 282.985 345.307 283.384 345.567 283.904C345.835 284.415 345.97 285.013 345.97 285.698C345.97 286.383 345.835 286.981 345.567 287.492C345.307 288.003 344.934 288.398 344.449 288.675C343.963 288.952 343.404 289.091 342.772 289.091ZM342.759 288.051C343.365 288.051 343.829 287.852 344.15 287.453C344.47 287.054 344.631 286.469 344.631 285.698C344.631 284.944 344.466 284.363 344.137 283.956C343.816 283.549 343.361 283.345 342.772 283.345C342.174 283.345 341.71 283.549 341.381 283.956C341.051 284.363 340.887 284.944 340.887 285.698C340.887 286.469 341.047 287.054 341.368 287.453C341.697 287.852 342.161 288.051 342.759 288.051ZM350.767 282.292C350.967 282.292 351.175 282.322 351.391 282.383L351.365 283.579C351.131 283.492 350.876 283.449 350.598 283.449C350 283.449 349.55 283.631 349.246 283.995C348.952 284.35 348.804 284.801 348.804 285.347V289H347.504V284.294C347.504 283.609 347.47 282.994 347.4 282.448H348.622L348.739 283.631C348.913 283.198 349.181 282.868 349.545 282.643C349.909 282.409 350.317 282.292 350.767 282.292ZM354.641 283.462V286.751C354.641 287.202 354.736 287.522 354.927 287.713C355.126 287.895 355.399 287.986 355.746 287.986C355.971 287.986 356.201 287.951 356.435 287.882V288.948C356.149 289.043 355.824 289.091 355.46 289.091C354.784 289.091 354.26 288.9 353.887 288.519C353.514 288.138 353.328 287.583 353.328 286.855V283.462H352.054V282.448H353.328V280.81L354.641 280.355V282.448H356.448V283.462H354.641Z" fill="#8A8CA8"/>
<rect x="179" y="263" width="105" height="41" rx="6" fill="#E9FAFC"/>
<path d="M199.287 286.712H194.607L193.619 289H192.254L196.375 279.744H197.506L201.64 289H200.275L199.287 286.712ZM198.832 285.646L196.947 281.239L195.062 285.646H198.832ZM206.193 282.292C206.756 282.292 207.259 282.435 207.701 282.721C208.143 283.007 208.485 283.41 208.728 283.93C208.979 284.45 209.105 285.048 209.105 285.724C209.105 286.4 208.983 286.994 208.741 287.505C208.498 288.008 208.156 288.398 207.714 288.675C207.272 288.952 206.765 289.091 206.193 289.091C205.69 289.091 205.248 288.987 204.867 288.779C204.494 288.562 204.212 288.255 204.022 287.856V291.808H202.722V284.294C202.722 283.609 202.687 282.994 202.618 282.448H203.84L203.97 283.657C204.143 283.224 204.425 282.89 204.815 282.656C205.205 282.413 205.664 282.292 206.193 282.292ZM205.894 288.051C206.483 288.051 206.942 287.847 207.272 287.44C207.601 287.033 207.766 286.461 207.766 285.724C207.766 284.979 207.601 284.398 207.272 283.982C206.942 283.557 206.483 283.345 205.894 283.345C205.287 283.345 204.823 283.549 204.503 283.956C204.182 284.363 204.022 284.944 204.022 285.698C204.022 286.452 204.182 287.033 204.503 287.44C204.832 287.847 205.296 288.051 205.894 288.051ZM214.115 282.292C214.678 282.292 215.181 282.435 215.623 282.721C216.065 283.007 216.407 283.41 216.65 283.93C216.901 284.45 217.027 285.048 217.027 285.724C217.027 286.4 216.905 286.994 216.663 287.505C216.42 288.008 216.078 288.398 215.636 288.675C215.194 288.952 214.687 289.091 214.115 289.091C213.612 289.091 213.17 288.987 212.789 288.779C212.416 288.562 212.134 288.255 211.944 287.856V291.808H210.644V284.294C210.644 283.609 210.609 282.994 210.54 282.448H211.762L211.892 283.657C212.065 283.224 212.347 282.89 212.737 282.656C213.127 282.413 213.586 282.292 214.115 282.292ZM213.816 288.051C214.405 288.051 214.864 287.847 215.194 287.44C215.523 287.033 215.688 286.461 215.688 285.724C215.688 284.979 215.523 284.398 215.194 283.982C214.864 283.557 214.405 283.345 213.816 283.345C213.209 283.345 212.745 283.549 212.425 283.956C212.104 284.363 211.944 284.944 211.944 285.698C211.944 286.452 212.104 287.033 212.425 287.44C212.754 287.847 213.218 288.051 213.816 288.051ZM221.387 289.091C220.745 289.091 220.182 288.952 219.697 288.675C219.211 288.398 218.834 288.003 218.566 287.492C218.306 286.981 218.176 286.383 218.176 285.698C218.176 285.013 218.306 284.415 218.566 283.904C218.834 283.384 219.211 282.985 219.697 282.708C220.182 282.431 220.745 282.292 221.387 282.292C222.019 282.292 222.578 282.431 223.064 282.708C223.549 282.985 223.922 283.384 224.182 283.904C224.45 284.415 224.585 285.013 224.585 285.698C224.585 286.383 224.45 286.981 224.182 287.492C223.922 288.003 223.549 288.398 223.064 288.675C222.578 288.952 222.019 289.091 221.387 289.091ZM221.374 288.051C221.98 288.051 222.444 287.852 222.765 287.453C223.085 287.054 223.246 286.469 223.246 285.698C223.246 284.944 223.081 284.363 222.752 283.956C222.431 283.549 221.976 283.345 221.387 283.345C220.789 283.345 220.325 283.549 219.996 283.956C219.666 284.363 219.502 284.944 219.502 285.698C219.502 286.469 219.662 287.054 219.983 287.453C220.312 287.852 220.776 288.051 221.374 288.051ZM226.119 282.448H227.419V289H226.119V282.448ZM227.523 279.588V280.966H226.002V279.588H227.523ZM232.828 282.292C234.397 282.292 235.181 283.167 235.181 284.918V289H233.868V284.996C233.868 284.424 233.755 284.008 233.53 283.748C233.313 283.488 232.962 283.358 232.477 283.358C231.922 283.358 231.476 283.531 231.138 283.878C230.809 284.225 230.644 284.688 230.644 285.269V289H229.344V284.294C229.344 283.609 229.309 282.994 229.24 282.448H230.462L230.579 283.579C230.787 283.163 231.086 282.847 231.476 282.63C231.875 282.405 232.325 282.292 232.828 282.292ZM238.753 283.462V286.751C238.753 287.202 238.848 287.522 239.039 287.713C239.238 287.895 239.511 287.986 239.858 287.986C240.083 287.986 240.313 287.951 240.547 287.882V288.948C240.261 289.043 239.936 289.091 239.572 289.091C238.896 289.091 238.372 288.9 237.999 288.519C237.626 288.138 237.44 287.583 237.44 286.855V283.462H236.166V282.448H237.44V280.81L238.753 280.355V282.448H240.56V283.462H238.753ZM249.248 282.292C250.704 282.292 251.432 283.167 251.432 284.918V289H250.119V284.983C250.119 284.42 250.019 284.008 249.82 283.748C249.629 283.488 249.317 283.358 248.884 283.358C248.381 283.358 247.982 283.531 247.688 283.878C247.402 284.225 247.259 284.697 247.259 285.295V289H245.946V284.983C245.946 284.42 245.846 284.008 245.647 283.748C245.456 283.488 245.144 283.358 244.711 283.358C244.208 283.358 243.809 283.531 243.515 283.878C243.22 284.225 243.073 284.697 243.073 285.295V289H241.773V284.294C241.773 283.609 241.738 282.994 241.669 282.448H242.891L243.008 283.54C243.198 283.141 243.471 282.834 243.827 282.617C244.182 282.4 244.598 282.292 245.075 282.292C246.089 282.292 246.752 282.712 247.064 283.553C247.263 283.163 247.553 282.855 247.935 282.63C248.325 282.405 248.762 282.292 249.248 282.292ZM258.903 285.75H254.223C254.266 287.284 254.964 288.051 256.316 288.051C257.07 288.051 257.759 287.804 258.383 287.31L258.786 288.246C258.491 288.506 258.114 288.714 257.655 288.87C257.204 289.017 256.749 289.091 256.29 289.091C255.241 289.091 254.418 288.792 253.82 288.194C253.222 287.587 252.923 286.76 252.923 285.711C252.923 285.044 253.053 284.45 253.313 283.93C253.581 283.41 253.954 283.007 254.431 282.721C254.907 282.435 255.449 282.292 256.056 282.292C256.94 282.292 257.633 282.578 258.136 283.15C258.647 283.722 258.903 284.515 258.903 285.529V285.75ZM256.082 283.267C255.588 283.267 255.185 283.414 254.873 283.709C254.561 284.004 254.361 284.424 254.275 284.97H257.746C257.694 284.415 257.525 283.995 257.239 283.709C256.953 283.414 256.567 283.267 256.082 283.267ZM263.893 282.292C265.462 282.292 266.246 283.167 266.246 284.918V289H264.933V284.996C264.933 284.424 264.821 284.008 264.595 283.748C264.379 283.488 264.028 283.358 263.542 283.358C262.988 283.358 262.541 283.531 262.203 283.878C261.874 284.225 261.709 284.688 261.709 285.269V289H260.409V284.294C260.409 283.609 260.375 282.994 260.305 282.448H261.527L261.644 283.579C261.852 283.163 262.151 282.847 262.541 282.63C262.94 282.405 263.391 282.292 263.893 282.292ZM269.818 283.462V286.751C269.818 287.202 269.914 287.522 270.104 287.713C270.304 287.895 270.577 287.986 270.923 287.986C271.149 287.986 271.378 287.951 271.612 287.882V288.948C271.326 289.043 271.001 289.091 270.637 289.091C269.961 289.091 269.437 288.9 269.064 288.519C268.692 288.138 268.505 287.583 268.505 286.855V283.462H267.231V282.448H268.505V280.81L269.818 280.355V282.448H271.625V283.462H269.818Z" fill="#8A8CA8"/>
<rect x="230" y="169" width="186" height="54" rx="27" fill="#E4FEF9"/>
<circle cx="257" cy="196" r="18" fill="white"/>
<path d="M260 196L255 200V196V192L260 196Z" fill="#2AE4B4"/>
<path d="M293 140H351" stroke="#E4FEF9" stroke-width="6" stroke-linecap="round"/>
<path d="M281.868 118.876H275.466L274.366 122H271.748L277.226 106.688H280.13L285.608 122H282.968L281.868 118.876ZM281.164 116.83L278.678 109.724L276.17 116.83H281.164ZM298.968 109.878V122H296.46V120.57C296.064 121.069 295.543 121.465 294.898 121.758C294.267 122.037 293.593 122.176 292.874 122.176C291.921 122.176 291.063 121.978 290.3 121.582C289.552 121.186 288.958 120.599 288.518 119.822C288.093 119.045 287.88 118.106 287.88 117.006V109.878H290.366V116.632C290.366 117.717 290.637 118.553 291.18 119.14C291.723 119.712 292.463 119.998 293.402 119.998C294.341 119.998 295.081 119.712 295.624 119.14C296.181 118.553 296.46 117.717 296.46 116.632V109.878H298.968ZM301.441 115.884C301.441 114.667 301.69 113.589 302.189 112.65C302.702 111.711 303.392 110.985 304.257 110.472C305.137 109.944 306.112 109.68 307.183 109.68C307.975 109.68 308.752 109.856 309.515 110.208C310.292 110.545 310.908 111 311.363 111.572V105.72H313.893V122H311.363V120.174C310.952 120.761 310.38 121.245 309.647 121.626C308.928 122.007 308.1 122.198 307.161 122.198C306.105 122.198 305.137 121.934 304.257 121.406C303.392 120.863 302.702 120.115 302.189 119.162C301.69 118.194 301.441 117.101 301.441 115.884ZM311.363 115.928C311.363 115.092 311.187 114.366 310.835 113.75C310.498 113.134 310.05 112.665 309.493 112.342C308.936 112.019 308.334 111.858 307.689 111.858C307.044 111.858 306.442 112.019 305.885 112.342C305.328 112.65 304.873 113.112 304.521 113.728C304.184 114.329 304.015 115.048 304.015 115.884C304.015 116.72 304.184 117.453 304.521 118.084C304.873 118.715 305.328 119.199 305.885 119.536C306.457 119.859 307.058 120.02 307.689 120.02C308.334 120.02 308.936 119.859 309.493 119.536C310.05 119.213 310.498 118.744 310.835 118.128C311.187 117.497 311.363 116.764 311.363 115.928ZM318.463 108.272C318.008 108.272 317.627 108.118 317.319 107.81C317.011 107.502 316.857 107.121 316.857 106.666C316.857 106.211 317.011 105.83 317.319 105.522C317.627 105.214 318.008 105.06 318.463 105.06C318.903 105.06 319.277 105.214 319.585 105.522C319.893 105.83 320.047 106.211 320.047 106.666C320.047 107.121 319.893 107.502 319.585 107.81C319.277 108.118 318.903 108.272 318.463 108.272ZM319.695 109.878V122H317.187V109.878H319.695ZM334.098 115.642C334.098 116.097 334.069 116.507 334.01 116.874H324.748C324.821 117.842 325.181 118.619 325.826 119.206C326.471 119.793 327.263 120.086 328.202 120.086C329.551 120.086 330.505 119.521 331.062 118.392H333.768C333.401 119.507 332.734 120.423 331.766 121.142C330.813 121.846 329.625 122.198 328.202 122.198C327.043 122.198 326.002 121.941 325.078 121.428C324.169 120.9 323.45 120.167 322.922 119.228C322.409 118.275 322.152 117.175 322.152 115.928C322.152 114.681 322.401 113.589 322.9 112.65C323.413 111.697 324.125 110.963 325.034 110.45C325.958 109.937 327.014 109.68 328.202 109.68C329.346 109.68 330.365 109.929 331.26 110.428C332.155 110.927 332.851 111.631 333.35 112.54C333.849 113.435 334.098 114.469 334.098 115.642ZM331.48 114.85C331.465 113.926 331.135 113.185 330.49 112.628C329.845 112.071 329.045 111.792 328.092 111.792C327.227 111.792 326.486 112.071 325.87 112.628C325.254 113.171 324.887 113.911 324.77 114.85H331.48ZM342.682 109.68C343.635 109.68 344.486 109.878 345.234 110.274C345.997 110.67 346.591 111.257 347.016 112.034C347.441 112.811 347.654 113.75 347.654 114.85V122H345.168V115.224C345.168 114.139 344.897 113.31 344.354 112.738C343.811 112.151 343.071 111.858 342.132 111.858C341.193 111.858 340.445 112.151 339.888 112.738C339.345 113.31 339.074 114.139 339.074 115.224V122H336.566V109.878H339.074V111.264C339.485 110.765 340.005 110.377 340.636 110.098C341.281 109.819 341.963 109.68 342.682 109.68ZM350.017 115.928C350.017 114.681 350.266 113.589 350.765 112.65C351.278 111.697 351.982 110.963 352.877 110.45C353.772 109.937 354.798 109.68 355.957 109.68C357.424 109.68 358.634 110.032 359.587 110.736C360.555 111.425 361.208 112.415 361.545 113.706H358.839C358.619 113.105 358.267 112.635 357.783 112.298C357.299 111.961 356.69 111.792 355.957 111.792C354.93 111.792 354.109 112.159 353.493 112.892C352.892 113.611 352.591 114.623 352.591 115.928C352.591 117.233 352.892 118.253 353.493 118.986C354.109 119.719 354.93 120.086 355.957 120.086C357.409 120.086 358.37 119.448 358.839 118.172H361.545C361.193 119.404 360.533 120.387 359.565 121.12C358.597 121.839 357.394 122.198 355.957 122.198C354.798 122.198 353.772 121.941 352.877 121.428C351.982 120.9 351.278 120.167 350.765 119.228C350.266 118.275 350.017 117.175 350.017 115.928ZM375.155 115.642C375.155 116.097 375.125 116.507 375.067 116.874H365.805C365.878 117.842 366.237 118.619 366.883 119.206C367.528 119.793 368.32 120.086 369.259 120.086C370.608 120.086 371.561 119.521 372.119 118.392H374.825C374.458 119.507 373.791 120.423 372.823 121.142C371.869 121.846 370.681 122.198 369.259 122.198C368.1 122.198 367.059 121.941 366.135 121.428C365.225 120.9 364.507 120.167 363.979 119.228C363.465 118.275 363.209 117.175 363.209 115.928C363.209 114.681 363.458 113.589 363.957 112.65C364.47 111.697 365.181 110.963 366.091 110.45C367.015 109.937 368.071 109.68 369.259 109.68C370.403 109.68 371.422 109.929 372.317 110.428C373.211 110.927 373.908 111.631 374.407 112.54C374.905 113.435 375.155 114.469 375.155 115.642ZM372.537 114.85C372.522 113.926 372.192 113.185 371.547 112.628C370.901 112.071 370.102 111.792 369.149 111.792C368.283 111.792 367.543 112.071 366.927 112.628C366.311 113.171 365.944 113.911 365.827 114.85H372.537Z" fill="#2F2E3E"/>
<path d="M397.84 71.242C397.84 71.998 397.574 72.6327 397.042 73.146C396.51 73.65 395.805 73.958 394.928 74.07V75.624H393.752V74.098C392.445 74.014 391.381 73.608 390.56 72.88L391.078 71.802C391.517 72.1567 391.955 72.4227 392.394 72.6C392.833 72.7773 393.309 72.8847 393.822 72.922V69.66C393.178 69.492 392.641 69.3147 392.212 69.128C391.792 68.9413 391.437 68.666 391.148 68.302C390.868 67.9287 390.728 67.4433 390.728 66.846C390.728 66.342 390.854 65.8847 391.106 65.474C391.367 65.054 391.727 64.7133 392.184 64.452C392.641 64.1813 393.164 64.0133 393.752 63.948V62.408H394.928V63.948C395.479 64.0133 395.992 64.1487 396.468 64.354C396.953 64.5593 397.364 64.8207 397.7 65.138L397.182 66.216C396.491 65.6 395.721 65.2407 394.872 65.138V68.582C395.488 68.7313 395.997 68.8993 396.398 69.086C396.809 69.2633 397.149 69.5247 397.42 69.87C397.7 70.2153 397.84 70.6727 397.84 71.242ZM392.184 66.776C392.184 67.1867 392.324 67.5087 392.604 67.742C392.893 67.966 393.299 68.1527 393.822 68.302V65.124C393.309 65.1987 392.907 65.3807 392.618 65.67C392.329 65.9593 392.184 66.328 392.184 66.776ZM394.872 72.88C395.357 72.796 395.731 72.6187 395.992 72.348C396.253 72.068 396.384 71.7133 396.384 71.284C396.384 70.9387 396.253 70.6633 395.992 70.458C395.74 70.2527 395.367 70.0753 394.872 69.926V72.88ZM403.113 67.686C403.71 67.686 404.237 67.8213 404.695 68.092C405.161 68.3533 405.525 68.7267 405.787 69.212C406.048 69.688 406.179 70.2387 406.179 70.864C406.179 71.4893 406.039 72.0493 405.759 72.544C405.479 73.0293 405.091 73.412 404.597 73.692C404.102 73.972 403.542 74.112 402.917 74.112C401.685 74.112 400.733 73.692 400.061 72.852C399.398 72.012 399.067 70.808 399.067 69.24C399.067 68.1293 399.221 67.1773 399.529 66.384C399.846 65.5813 400.299 64.97 400.887 64.55C401.484 64.13 402.193 63.92 403.015 63.92C403.603 63.92 404.172 64.0227 404.723 64.228C405.283 64.4333 405.768 64.732 406.179 65.124L405.661 66.188C404.783 65.46 403.915 65.096 403.057 65.096C402.245 65.096 401.619 65.4553 401.181 66.174C400.742 66.8833 400.523 67.896 400.523 69.212V69.226C400.737 68.7407 401.073 68.3627 401.531 68.092C401.997 67.8213 402.525 67.686 403.113 67.686ZM402.847 72.936C403.425 72.936 403.892 72.7493 404.247 72.376C404.601 72.0027 404.779 71.508 404.779 70.892C404.779 70.2853 404.601 69.7953 404.247 69.422C403.892 69.0487 403.421 68.862 402.833 68.862C402.245 68.862 401.759 69.0533 401.377 69.436C401.003 69.8093 400.817 70.2947 400.817 70.892C400.817 71.4987 401.003 71.9933 401.377 72.376C401.75 72.7493 402.24 72.936 402.847 72.936ZM410.989 74.112C409.832 74.112 408.95 73.678 408.343 72.81C407.736 71.942 407.433 70.6773 407.433 69.016C407.433 67.3547 407.736 66.09 408.343 65.222C408.95 64.354 409.832 63.92 410.989 63.92C412.146 63.92 413.028 64.354 413.635 65.222C414.242 66.0807 414.545 67.3407 414.545 69.002C414.545 70.6727 414.242 71.942 413.635 72.81C413.028 73.678 412.146 74.112 410.989 74.112ZM410.989 72.95C411.708 72.95 412.235 72.6327 412.571 71.998C412.916 71.354 413.089 70.3553 413.089 69.002C413.089 67.6487 412.921 66.6593 412.585 66.034C412.249 65.4087 411.717 65.096 410.989 65.096C410.27 65.096 409.738 65.4133 409.393 66.048C409.057 66.6733 408.889 67.658 408.889 69.002C408.889 70.3553 409.057 71.354 409.393 71.998C409.738 72.6327 410.27 72.95 410.989 72.95Z" fill="#222222"/>
<path d="M414.848 74.798L418.46 63.486H419.706L416.08 74.798H414.848ZM422.02 74.098C420.788 74.098 419.817 73.7993 419.108 73.202L419.528 72.18C420.265 72.74 421.11 73.02 422.062 73.02C422.547 73.02 422.916 72.9407 423.168 72.782C423.42 72.614 423.546 72.3807 423.546 72.082C423.546 71.83 423.457 71.634 423.28 71.494C423.112 71.3447 422.822 71.2187 422.412 71.116L421.236 70.836C420.62 70.7053 420.148 70.4767 419.822 70.15C419.504 69.814 419.346 69.3987 419.346 68.904C419.346 68.2693 419.598 67.756 420.102 67.364C420.615 66.972 421.292 66.776 422.132 66.776C422.636 66.776 423.112 66.8553 423.56 67.014C424.017 67.1727 424.404 67.3967 424.722 67.686L424.288 68.68C423.606 68.1387 422.888 67.868 422.132 67.868C421.674 67.868 421.32 67.9567 421.068 68.134C420.816 68.302 420.69 68.54 420.69 68.848C420.69 69.0907 420.769 69.2867 420.928 69.436C421.086 69.5853 421.338 69.702 421.684 69.786L422.888 70.08C423.56 70.2293 424.054 70.4673 424.372 70.794C424.698 71.1113 424.862 71.5267 424.862 72.04C424.862 72.6747 424.605 73.1787 424.092 73.552C423.588 73.916 422.897 74.098 422.02 74.098ZM432.548 70.5H427.508C427.555 72.152 428.306 72.978 429.762 72.978C430.574 72.978 431.316 72.712 431.988 72.18L432.422 73.188C432.105 73.468 431.699 73.692 431.204 73.86C430.719 74.0187 430.229 74.098 429.734 74.098C428.605 74.098 427.718 73.776 427.074 73.132C426.43 72.4787 426.108 71.5873 426.108 70.458C426.108 69.7393 426.248 69.1 426.528 68.54C426.818 67.98 427.219 67.546 427.732 67.238C428.246 66.93 428.829 66.776 429.482 66.776C430.434 66.776 431.181 67.084 431.722 67.7C432.273 68.316 432.548 69.17 432.548 70.262V70.5ZM429.51 67.826C428.978 67.826 428.544 67.9847 428.208 68.302C427.872 68.6193 427.658 69.072 427.564 69.66H431.302C431.246 69.0627 431.064 68.61 430.756 68.302C430.448 67.9847 430.033 67.826 429.51 67.826ZM437.685 66.776C437.899 66.776 438.123 66.8087 438.357 66.874L438.329 68.162C438.077 68.0687 437.801 68.022 437.503 68.022C436.859 68.022 436.373 68.218 436.047 68.61C435.729 68.9927 435.571 69.478 435.571 70.066V74H434.171V68.932C434.171 68.1947 434.133 67.532 434.059 66.944H435.375L435.501 68.218C435.687 67.7513 435.977 67.3967 436.369 67.154C436.761 66.902 437.199 66.776 437.685 66.776ZM446.27 66.958L443.204 74H441.93L438.892 66.958H440.39L442.602 72.404L444.856 66.958H446.27ZM447.364 66.944H448.764V74H447.364V66.944ZM448.876 63.864V65.348H447.238V63.864H448.876ZM453.903 74.098C453.193 74.098 452.573 73.9487 452.041 73.65C451.518 73.3513 451.117 72.9313 450.837 72.39C450.557 71.8393 450.417 71.2 450.417 70.472C450.417 69.744 450.561 69.1 450.851 68.54C451.149 67.98 451.565 67.546 452.097 67.238C452.629 66.93 453.249 66.776 453.959 66.776C454.453 66.776 454.929 66.86 455.387 67.028C455.844 67.1867 456.213 67.406 456.493 67.686L456.059 68.708C455.396 68.1853 454.729 67.924 454.057 67.924C453.375 67.924 452.843 68.148 452.461 68.596C452.078 69.0347 451.887 69.6553 451.887 70.458C451.887 71.2607 452.078 71.8813 452.461 72.32C452.843 72.7493 453.375 72.964 454.057 72.964C454.747 72.964 455.415 72.7027 456.059 72.18L456.493 73.202C456.194 73.482 455.811 73.7013 455.345 73.86C454.887 74.0187 454.407 74.098 453.903 74.098ZM463.843 70.5H458.803C458.85 72.152 459.601 72.978 461.057 72.978C461.869 72.978 462.611 72.712 463.283 72.18L463.717 73.188C463.4 73.468 462.994 73.692 462.499 73.86C462.014 74.0187 461.524 74.098 461.029 74.098C459.9 74.098 459.013 73.776 458.369 73.132C457.725 72.4787 457.403 71.5873 457.403 70.458C457.403 69.7393 457.543 69.1 457.823 68.54C458.112 67.98 458.514 67.546 459.027 67.238C459.54 66.93 460.124 66.776 460.777 66.776C461.729 66.776 462.476 67.084 463.017 67.7C463.568 68.316 463.843 69.17 463.843 70.262V70.5ZM460.805 67.826C460.273 67.826 459.839 67.9847 459.503 68.302C459.167 68.6193 458.952 69.072 458.859 69.66H462.597C462.541 69.0627 462.359 68.61 462.051 68.302C461.743 67.9847 461.328 67.826 460.805 67.826Z" fill="#9CA3B1"/>
<path d="M181.049 66.927C181.348 66.0057 182.652 66.0057 182.951 66.9271L183.572 68.8369C183.705 69.2489 184.089 69.5279 184.523 69.5279H186.531C187.499 69.5279 187.902 70.7675 187.119 71.3369L185.494 72.5172C185.143 72.7719 184.997 73.2232 185.131 73.6353L185.751 75.5451C186.051 76.4664 184.996 77.2325 184.212 76.6631L182.588 75.4828C182.237 75.2281 181.763 75.2281 181.412 75.4828L179.788 76.6631C179.004 77.2325 177.949 76.4664 178.249 75.5451L178.869 73.6353C179.003 73.2232 178.857 72.7719 178.506 72.5172L176.881 71.3369C176.098 70.7675 176.501 69.5279 177.469 69.5279H179.477C179.911 69.5279 180.295 69.2489 180.428 68.8369L181.049 66.927Z" fill="#F8A839"/>
<path d="M197.049 66.927C197.348 66.0057 198.652 66.0057 198.951 66.9271L199.572 68.8369C199.705 69.2489 200.089 69.5279 200.523 69.5279H202.531C203.499 69.5279 203.902 70.7675 203.119 71.3369L201.494 72.5172C201.143 72.7719 200.997 73.2232 201.131 73.6353L201.751 75.5451C202.051 76.4664 200.996 77.2325 200.212 76.6631L198.588 75.4828C198.237 75.2281 197.763 75.2281 197.412 75.4828L195.788 76.6631C195.004 77.2325 193.949 76.4664 194.249 75.5451L194.869 73.6353C195.003 73.2232 194.857 72.7719 194.506 72.5172L192.881 71.3369C192.098 70.7675 192.501 69.5279 193.469 69.5279H195.477C195.911 69.5279 196.295 69.2489 196.428 68.8369L197.049 66.927Z" fill="#F8A839"/>
<path d="M213.049 66.927C213.348 66.0057 214.652 66.0057 214.951 66.9271L215.572 68.8369C215.705 69.2489 216.089 69.5279 216.523 69.5279H218.531C219.499 69.5279 219.902 70.7675 219.119 71.3369L217.494 72.5172C217.143 72.7719 216.997 73.2232 217.131 73.6353L217.751 75.5451C218.051 76.4664 216.996 77.2325 216.212 76.6631L214.588 75.4828C214.237 75.2281 213.763 75.2281 213.412 75.4828L211.788 76.6631C211.004 77.2325 209.949 76.4664 210.249 75.5451L210.869 73.6353C211.003 73.2232 210.857 72.7719 210.506 72.5172L208.881 71.3369C208.098 70.7675 208.501 69.5279 209.469 69.5279H211.477C211.911 69.5279 212.295 69.2489 212.428 68.8369L213.049 66.927Z" fill="#F8A839"/>
<path d="M229.049 66.927C229.348 66.0057 230.652 66.0057 230.951 66.9271L231.572 68.8369C231.705 69.2489 232.089 69.5279 232.523 69.5279H234.531C235.499 69.5279 235.902 70.7675 235.119 71.3369L233.494 72.5172C233.143 72.7719 232.997 73.2232 233.131 73.6353L233.751 75.5451C234.051 76.4664 232.996 77.2325 232.212 76.6631L230.588 75.4828C230.237 75.2281 229.763 75.2281 229.412 75.4828L227.788 76.6631C227.004 77.2325 225.949 76.4664 226.249 75.5451L226.869 73.6353C227.003 73.2232 226.857 72.7719 226.506 72.5172L224.881 71.3369C224.098 70.7675 224.501 69.5279 225.469 69.5279H227.477C227.911 69.5279 228.295 69.2489 228.428 68.8369L229.049 66.927Z" fill="#F8A839"/>
<path d="M245.049 66.927C245.348 66.0057 246.652 66.0057 246.951 66.9271L247.572 68.8369C247.705 69.2489 248.089 69.5279 248.523 69.5279H250.531C251.499 69.5279 251.902 70.7675 251.119 71.3369L249.494 72.5172C249.143 72.7719 248.997 73.2232 249.131 73.6353L249.751 75.5451C250.051 76.4664 248.996 77.2325 248.212 76.6631L246.588 75.4828C246.237 75.2281 245.763 75.2281 245.412 75.4828L243.788 76.6631C243.004 77.2325 241.949 76.4664 242.249 75.5451L242.869 73.6353C243.003 73.2232 242.857 72.7719 242.506 72.5172L240.881 71.3369C240.098 70.7675 240.501 69.5279 241.469 69.5279H243.477C243.911 69.5279 244.295 69.2489 244.428 68.8369L245.049 66.927Z" fill="#F8A839"/>
<circle cx="178" cy="34" r="4" fill="#F8FEFF"/>
<circle cx="190" cy="34" r="4" fill="#F8FEFF"/>
<circle cx="202" cy="34" r="4" fill="#F8FEFF"/>
<defs>
<filter id="filter0_d" x="0" y="0" width="254" height="290" filterUnits="userSpaceOnUse" color-interpolation-filters="sRGB">
<feFlood flood-opacity="0" result="BackgroundImageFix"/>
<feColorMatrix in="SourceAlpha" type="matrix" values="0 0 0 0 0 0 0 0 0 0 0 0 0 0 0 0 0 0 127 0"/>
<feOffset dy="10"/>
<feGaussianBlur stdDeviation="12.5"/>
<feColorMatrix type="matrix" values="0 0 0 0 0 0 0 0 0 0 0 0 0 0 0 0 0 0 0.05 0"/>
<feBlend mode="normal" in2="BackgroundImageFix" result="effect1_dropShadow"/>
<feBlend mode="normal" in="SourceGraphic" in2="effect1_dropShadow" result="shape"/>
</filter>
<filter id="filter1_d" x="108" y="135" width="40" height="40" filterUnits="userSpaceOnUse" color-interpolation-filters="sRGB">
<feFlood flood-opacity="0" result="BackgroundImageFix"/>
<feColorMatrix in="SourceAlpha" type="matrix" values="0 0 0 0 0 0 0 0 0 0 0 0 0 0 0 0 0 0 127 0"/>
<feOffset dy="4"/>
<feGaussianBlur stdDeviation="5"/>
<feColorMatrix type="matrix" values="0 0 0 0 0.105882 0 0 0 0 0.627451 0 0 0 0 0.670588 0 0 0 0.05 0"/>
<feBlend mode="normal" in2="BackgroundImageFix" result="effect1_dropShadow"/>
<feBlend mode="normal" in="SourceGraphic" in2="effect1_dropShadow" result="shape"/>
</filter>
<filter id="filter2_d" x="124" y="5" width="396" height="380" filterUnits="userSpaceOnUse" color-interpolation-filters="sRGB">
<feFlood flood-opacity="0" result="BackgroundImageFix"/>
<feColorMatrix in="SourceAlpha" type="matrix" values="0 0 0 0 0 0 0 0 0 0 0 0 0 0 0 0 0 0 127 0"/>
<feOffset dy="20"/>
<feGaussianBlur stdDeviation="17.5"/>
<feColorMatrix type="matrix" values="0 0 0 0 0 0 0 0 0 0 0 0 0 0 0 0 0 0 0.05 0"/>
<feBlend mode="normal" in2="BackgroundImageFix" result="effect1_dropShadow"/>
<feBlend mode="normal" in="SourceGraphic" in2="effect1_dropShadow" result="shape"/>
</filter>
</defs>
</svg>
